# xmcd
#
# Track frame offsets:
#	150
#	18482
#	32169
#	48437
#	65807
#	86297
#	96970
#	109942
#	123725
#	134250
#	149100
#	162852
#	197620
#	212832
#	228885
#	243580
#	256840
#	268977
#	288007
#
# Disc length: 4004
#
# Revision: 5
# Processed by: cddbd v1.5.1PL0 Copyright (c) Steve Scherf et al.
# Submitted via: tcd 2.0b
# Normalized: r4:DSETVAR1
#
DISCID=1f0fa213
DTITLE=Various Artist - Yo Soy, Del Son A La Salsa Disc 1
DYEAR=1900
DGENRE=
TTITLE0=Tanga - Mario Bauza and Afro-Cuban Jazz Orchestra
TTITLE1=Nengon 1 - Grupo Changui De Guntanamo
TTITLE2=Son De La Loma - Trio Matamoros
TTITLE3=Echale Salsita - Septeto Ignacio Piñeiro
TTITLE4=Rumba De Calle - Grupo Yoruba Andabo
TTITLE5=La Yuca De Catalina - Arsenio Rodriguez
TTITLE6=La Guarapachanga - Chappotin Y Su Conjunto
TTITLE7=Goza Mi Mambo - Orquesta De Arcaño
TTITLE8=Ni Hablar - Perez Prado
TTITLE9=Nague - Machito Y Sus Afro-Cubans
TTITLE10=Celina - Miguelito Valdes Y Su Orquesta
TTITLE11=Manteca - Dizzy Gillespie
TTITLE12=Para Los Rumberos - Tito Puente
TTITLE13=Descarga A La Tito - Tito Puente Feat. Chucho Valdez and Dave Valentin
TTITLE14=Mambo Mona Mama Guela - Tito Rodriguez
TTITLE15=Como Fue - Benny More
TTITLE16=Maquino Landera - Ismael Rivera and Cortijo Y Su Combo
TTITLE17=El Menu - El Gran Combo
TTITLE18=Me Voy A Pinar Del Rio - Celia Cruz Con La Sonora Mantancera
EXTD=
EXTT0=
EXTT1=
EXTT2=
EXTT3=
EXTT4=
EXTT5=
EXTT6=
EXTT7=
EXTT8=
EXTT9=
EXTT10=
EXTT11=
EXTT12=
EXTT13=
EXTT14=
EXTT15=
EXTT16=
EXTT17=
EXTT18=
PLAYORDER=
